<svg
  clip-rule="evenodd"
  fill-rule="evenodd"
  height="180.622mm"
  image-rendering="optimizeQuality"
  shape-rendering="geometricPrecision"
  text-rendering="geometricPrecision"
  viewBox="0 0 18276.39 18276.39"
  width="180.622mm"
  xmlns="http://www.w3.org/2000/svg">
  <path fill="#e6c784"
    d="m2534.42 11351.35c0-2245.72 708.32-4440.04 1946.82-6298.97 103.37-155.16 218.96-171.49 475.05-274.57 536.37-215.9 1119.85-410.38 1704.63-544.23 219.49-50.24 417.22-81.04 621.09-128.54 50.85 218.27 236.44 349.83 321.26 713.93 242.22 0 441.96-64.07 678.27-71.35l928.06-35.74c498.18 0 1256.9 107.08 1463.53 107.08 21.93-94.08 101.96-263.56 143.22-356.53 48.35-108.96 150.88-255.63 178.05-357.4 1273.44 296.69 1203.98 227.55 2550.67 769.07 248.15 99.78 322.98 287.6 521.25 621.03 1061.74 1785.6 1675.67 3686.96 1675.67 5820.51l-67.88 1074.41c-35.69 174-98.52 174.61-402.81 382.5-716.2 489.33-1526.42 874.63-2338.84 1195.07-189.85 74.89-416.32 124.4-581.61 203.71-338.52-505.52-381.8-514.62-713.93-1142.28 174.17-92.16 392.18-161 571.67-249.34 190.19-93.62 351.65-189.14 534.92-286.1-302.15-451.22-310.77-108.04-1470.61 207.11-1706.49 463.66-3432.84 390.26-5067.3-272.97-348.43-141.39-363.91-228.37-536.1-86.04-64.81 53.57-94.27 88.7-136.6 151.9 304.45 161.1 703.73 414.2 1070.89 499.75-22.11 265.65-533.56 961.93-678.23 1177.97l-1116.47-418.46c-389.7-167.01-694.6-321.9-1049.98-520.64-340.78-190.57-638.68-370.14-944.82-590.11-83.5-60-165.94-102.15-200.38-192.28-47.91-125.47-79.47-975.21-79.47-1098.5zm-2534.42-2534.42c0 1378.11 75.67 2125.17 521.63 3404.94 212.72 610.44 406.82 959.72 704.15 1509 68.94 127.36 132.47 212.37 203.74 331.71 293.01 490.67 847.82 1154.59 1238.76 1545.53 370.41 370.4 759.32 689.39 1186.65 990.82 536.37 378.34 794.91 527.23 1391.87 821.28 845.47 416.45 2312.62 856.17 3570.14 856.17h48.39c1007.65-.22 1490.02-9.29 2507.9-263.7 307.25-76.8 561.7-157.94 848.65-257.93 1170.99-408.05 1889.46-913.42 2806.25-1620.05 1830.73-1411.08 3248.26-4271.67 3248.26-6675.24 0-1648.17-194.49-2835.34-844.34-4188.81-988.52-2058.82-2385.02-3395.25-4402.83-4414.09-965.05-487.28-2475.02-856.57-3569.75-856.57-1375.78 0-2126.6 76.17-3404.94 521.63-254.81 88.79-552.85 206.53-783.66 322.9-471.09 237.53-971.92 502.3-1400.68 812.48-1783 1289.93-3054.37 3071.78-3599.42 5217.51-140.2 551.97-270.75 1278.22-270.75 1942.4z"/>
  <path fill="#e6c784"
    d="m10137.69 9637.94c0 707.83 518.44 1331.58 1180.67 1350.48 645.96 18.43 1210.97-594.66 1210.97-1314.78 0-1815.23-2391.64-1801.6-2391.64-35.7z"/>
  <path fill="#e6c784"
    d="m5747.07 9637.94c0 897.07 839.03 1610.68 1642.8 1250.14 133.05-59.68 275.1-159.55 375.42-267.11 788.47-845.48 268.92-2363.8-861.63-2315.2-672.68 28.91-1156.59 642.04-1156.59 1332.17z"/>
</svg>
