<svg clip-rule="evenodd" fill-rule="evenodd" height="347.726" image-rendering="optimizeQuality" shape-rendering="geometricPrecision" text-rendering="geometricPrecision" viewBox="0 0 26099.69 9682.31" width="937.334" xmlns="http://www.w3.org/2000/svg" xmlns:xlink="http://www.w3.org/1999/xlink"><linearGradient id="a" gradientUnits="userSpaceOnUse" x1="13518.86" x2="13821.43" y1="37.81" y2="9972.28"><stop offset="0" stop-color="#a5823e"/><stop offset=".42" stop-color="#fce677"/><stop offset="1" stop-color="#b78e3f"/></linearGradient><path d="m63.04 3221.03h774.17l270.69 1937.3 270.68-1937.3h837.22v3333.98h-602.69v-1712.88l-258.54 1712.88h-530.01l-258.54-1712.88v1712.88h-566.02v-3333.98h63.04zm2681 0h1437.86v584.35h-870.72v721.71h691.99v584.36h-691.99v859.2h870.72v584.35h-1500.89v-3333.98h63.04zm2210.1 584.35h-527.02v-584.35h1684.2v584.35h-527.01v2749.62h-630.17zm1731.25-584.35h736.26c181.06 1111.31 362 2222.64 542.95 3333.98h-632.56l-90.33-627.84h-465.27l-91.65 627.84h-595.78l542.96-3333.98h53.43zm477.48 2144.71-156.1-1102.23-152.91 1102.23zm9941.63-2144.71h567.15v2749.62h829.47v584.35h-1459.65v-3333.98h63.04zm1788.49 1915.31-633.67-1915.31h670.42l301.25 1032.27 301.25-1032.27h624.6l-633.67 1915.31v1418.67h-630.17v-1418.67zm2249.11 1464.49c-127.8 0-241.47-18.59-340.98-55.73-101.59-37.94-187.45-94.93-257.53-170.93-69.56-75.43-121.64-166.03-156.19-271.75-33.82-103.52-50.75-221.16-50.75-352.85v-1723.1c0-131.7 16.92-249.32 50.75-352.85 34.55-105.73 86.62-196.33 156.19-271.76 70.08-75.99 155.94-132.98 257.53-170.92 99.5-37.15 213.17-55.75 340.98-55.75 127.8 0 241.47 18.59 340.98 55.75 101.58 37.93 187.43 94.92 257.53 170.92 69.55 75.43 121.63 166.03 156.18 271.76 33.82 103.53 50.75 221.16 50.75 352.85v402.16h-602.68v-434.24c0-156.55-63.01-234.84-189.01-234.84-64.65 0-111.65 17.36-141.01 52.06-31.99 37.81-48 98.75-48 182.78v1791.83c0 82.35 15.92 142.05 47.75 179.1 29.31 34.1 76.4 51.16 141.26 51.16s111.95-17.06 141.26-51.16c31.82-37.03 47.75-96.75 47.75-179.1v-553.38h602.68v516.73c0 131.69-16.92 249.31-50.75 352.85-34.54 105.72-86.62 196.32-156.18 271.75-70.1 76.01-155.95 132.99-257.53 170.93-99.5 37.16-213.17 55.73-340.98 55.73zm1649.88-3379.8h736.26c181.06 1111.31 362 2222.64 542.95 3333.98h-632.56l-90.33-627.84h-465.27l-91.65 627.84h-595.78l542.96-3333.98h53.43zm477.48 2144.71-156.1-1102.23-152.91 1102.23zm1186.15-2144.71h681.33l387.56 1517.6v-1517.6h575.19v3333.98h-629.5l-502.43-1945.04v1945.04h-575.19v-3333.98h63.05z" fill="#344441" fill-rule="nonzero"/><path d="m9647.36 4294.15 25.87-474.59c-210.77 173.88-467.97 490.28-643.59 761.4-168.23 259.71-339.3 677.45-422.47 995.97 207.71-147.35 353.3-275.39 652.72-321.35 735.49-112.89 1862.94 533.91 2369.57 540.37.69-87.77-74.34-471.32-80.98-751.57-4.73-199.49-360.77-320.12-610.62-1100.22-32.47-101.34-55.07-89.92-164.09-125.39-208.57-67.87-209.37-52.89-417.1 36.79-169.55 73.19-377.97 214.49-531.25 323.29-62.33 44.24-105.59 86.02-178.05 115.3zm3793.92 1035.8c93.09 52.87 300.65-49.86 386.57-81.94 22.99-8.58 84.9-84.43 83.36-2.49-1.11 59.02-345.12 252.27-471.06 98.14-2.85-3.49-5.55-17.5 1.14-13.7zm829.29-1858.32c47.45 140.99 246.24 193.15 436.82 164.98 43.1-307.45-290.26-376.54-436.82-164.98zm-1216.12 1560.37c34.04 48.52 81.95 85.86 123.94 129.08 69.52 71.51 66.82 64.87 191.05 82.34 213.14 29.96 291.29-37 441.64-94.49l-37.73-135.04c-340.17 175.6-578.91 28.49-718.9 18.12zm2963.31 111.59c270.39 35.35 478.11-143.03 507.2-305.06-196.84-91.45-100.14-7.09-305.21-86.66-60.83 149.96-128.87 267.61-202 391.72zm-3284.84-1074.65c-60.68 24.68-95.33 33.91-116.74 111.81-53.82 195.68 154.04 362.55 315.33 299.29 256.44-100.59 43.02-509.37-198.59-411.1zm285.31 2434.06c-85.15-17.43-136.17-53.35-225.94-82.84 8.27 101.38 28.13 186.64 43.02 281.44 27.53 175.3 20.52 299.81 102.63 359.69l245.67 185.3c13.92-149.38-156.66-560.82-165.38-743.58zm714.41-1576.92 7.67-136.16c-236.04 18.4-489.48 42.61-718.25-36.82-120.7-41.91-186.77-104.29-273.31-138.99 17.53 43.86 109.05 173.75 145.36 214.02 60.74 67.36 153.46 100.08 247.71 130.62 189.12 61.29 431.82 75.3 590.81-32.67zm1385.09-327.18c-55.25-97.01-199.74-359.8-217.36-491.45-124.9-14.65-309.46-82.89-439.8-65.82 78.07 114.37 214.6 440.94 422.13 492.93 58.61 14.68 195.82 62.63 235.03 64.33zm-3755.37-885.32c62.08-132.08 46.66-184.23 151.84-292.68 136.92-141.19 213.2-122.1 286.24-171.71-73.15-73.06-283.59-280.28-375.37-309.19-67.92 119.36-116.22 165.39-132.18 345.77-13.52 152.86 56.73 302.44 69.47 427.81zm4446.33 1381.62c-57.52-81.31-85.43-74.88-182.97-243.61-59.42-102.77-98.15-192.41-141.74-302.44-148.56-374.97 51.34-223.12-474.98-407.96 11.33 135.63 226.8 507.62 302.86 562.93 91.85 66.8 178.18 111.41 261.17 183.66l164.41 160.55c43.33 48.53 8.04 35.14 71.25 46.86zm-2680.31 1478.07c34.53 100.56 64.85 221.16 98.43 335.87 96.4 329.36 75.13 366.31 250.58 622.19 62.3 90.86 115.26 176.91 191.47 233.67-5.65-142.98-226.58-801.74-297.99-1016.88-28.54-86-155.59-163.57-242.49-174.86zm592.76-1083.32c60.08 274.83 551.77 532.52 598.29 204.12 21.29-150.24-95.01-306.97-199.91-346-159.53-59.33-240.6 91.48-398.37 141.87zm-1899.72-306.96c-66.23-23.83-51.41-36.09-112.93-66.93 51 148.26 84.32 286.19 157.62 433.72 45.26 91.11 208.88 267.68 337.09 237.35 42.41-195.82-316.38-535.4-366.54-1288.35-13.46-202.03-15.52-139.52-81.21-169.43 1.61 132.16 33.79 279.55 32.4 425.58-1.32 138.23 17.49 299.06 33.57 428.06zm4124.08-101.79c54.19-78.93 182.15-306.82 204.25-394.67-51.09-55.95-210.07-176.77-273.97-221.48l-365.21-140.08c46.12 238.91 272.63 698.51 434.93 756.23zm-2716.13-1077.04c151.61 198.84 146.4 350.76 226.29 383.13 53.38 21.64 482.03 58.59 556.53 58.81-20.28-353.46-413.48-634.54-782.81-441.94zm-3461.44 4617.68c81.54-26.28 137.81-61.57 222.66-102.98 374.04-182.61 257.78-70.89 348.51-268.83 151.02-329.49 443.18-596.24 729.35-803.84-155.86-13.99-361.29 81.6-473.16 155.2-253.28 166.62-768.65 852.05-827.36 1020.45zm3732.04-1863.12c22.84 58.73 51.19 207.19 69.97 286.54 19.66 83.13 42.12 179.03 66.87 275.09 187.54 727.87 115.32 561.2 135.04 1200.24 3.2 103.38 59.85 166.19 101.44 238.91 37.71 65.94 67.98 162.88 122.9 219.21 105.1-382.86-120.49-1381.42-232.59-1801.66-23.37-87.62-48.54-170.75-76.97-266.43-22.44-75.49-33.02-135.16-186.66-151.89zm-1769.12-1986.8c12.38-104.71.67-256.78-11.93-358.59-12.28-99.13-117.75-149.03-184.47-209.5-153.54-139.15-398.53-854.03-209.5-1194.26 47.15-84.85 99.19-133.64 197.28-178.94 124.57-57.51 178.14-46.83 329.53-66.34-106.29-152.49-156.18-141.89-291.38-101.16-998.86 301.03-159.83 1863.2 170.48 2108.79zm213.45-410.18c-25.64 488.17 194.97 1062.99 449.46 1430.43 156 225.21 480.78 293.56 396.3 101.61-13.98-31.76-41.75-73.75-58.18-98.6-371.19-561.46-492.73-630.66-572.69-1481.18-43.36 3.46-169.68 37.4-214.89 47.75zm-194.99 717.31c22.02-310.29-63.35-204.27-331.6-621.68-342.94-533.65-677.28-1545.34 67.58-1819.84 67.26-24.78 151.46-36.21 193.43-59.64-127.63-221.8-513.72-65.21-681.95 205.17-377.81 607.2 163.65 1881.78 752.54 2295.99zm2332.04-637.88 563.27 41.77c-196.26-233.83-236.17-374.82-307.56-462.67-584.25-11.58-517.42-77.37-778.55-421.31-44.19-58.2-78.78-63.36-181.14-109.63l-612.38-290.83c29.2 165.45 83.61 355.95 123.48 541.73 28.78 134.17 60.32 81.27 176.85 147.46 151.67 86.16 54.34 71.7 241.74 25.06 278.25-69.27 566.1 37.8 689.1 276.12 47.33 91.71 52.11 173.05 85.19 252.3zm-2006.37 2045.14c118.09 84.48 227.4 188.33 306.7 309.7 109.52 167.66 27.27 134.49 148.99 159.06 67.2 13.58 187.76 36.84 249.52 38.19-44.61-159.99-21.91-417.19-61.11-569.34-19.32-75-15.7-55.57-83.15-87.97-309.83-148.83-922.35-487.35-1225.65-484.45-37.42 59.46-109.04 152.87-133.31 221.01 45.77 29.3 152.29 65.91 214.55 91.85 76.21 31.75 137.76 59.99 210.9 96.22 147.02 72.85 249.08 137.39 372.56 225.72zm1775.33-3041.25c83.4-31.5 177.11-44.57 243.22-77.91-48.01-104.4-237.59-474.27-254.35-550.9l49.76 60.54c17.18 27.04 23.01 39.22 37.88 63.73l235.72 412.05c131.12-24.9 259.06-72.88 400.71-39.12 164.05 39.1 143.02 118.08 211.85 251.58 31.16 60.45 192.4 150.47 261.23 199.44l1106.69 758.16c102.27 70.44 186.45 159.12 338.04 78.57-62.62-29.21-110.46-70.19-170.61-108.43l-869.26-567.78c-106.22-68.63-245.48-173.65-351.77-225.35-2.28-253.72-83.61-305.43-220.93-417.67-119-97.29-247.33-184.21-375.77-274.09-302.81-211.91-530.22-298.32-822.65-459.93 11.32 65.6 31.74 134.76 49.61 206.62 56.8 228.46 83.31 505.24 130.65 690.48zm158.02 3708c-38.54-97.48-23.79-198.63-202.11-261.04 32.85 374.07 266.39 1031.89 307.19 1798.35 23.76 446.21-138.73 192.63 219.99 991.95 350.46-160.04 246.08-1188.43 126.39-1541.56-109.12-321.96-322.17-660.59-451.47-987.7zm-406.4-4690.97 287.05 151c88.86-157.59 201.71-464.75 374.19-771.94 72.4-128.95 141.71-238.76 222.04-360.55 62.69-95.02 172.04-285.65 247.95-337.88l-409.93 723.3c-96.19 200.8-289.47 611.16-326.48 799.5l237.64 125.34c2.24-3.87 4.93-14.55 5.73-12.12.79 2.43 4.42-9.41 5.48-12.29 2.5-6.86 11.53-33.5 13.13-39.31l62.9-246.34c26.66-95.52 57.16-202.62 95.1-298.23 78.29-197.19 144.08-376.01 228.79-559.07l387.88-793.13c32.02-65.53 115.89-196.5 122.35-264.01-250 161.52-688.09 595.7-898.32 823.92-185.6 201.47-568.92 745.41-655.52 1071.82zm-4155.76 5871.87c32.18-49.37 95.29-211.3 127.88-281.54 121.92-262.91 279.91-497.93 487.31-694.37 141.83-134.33 277.74-243.61 486.23-318 132.79-47.38 513.62-123.98 674.47-46.87-337.06 20.47-459.41-5.76-729.85 112.19-643.72 280.74-1081.31 1228.79-993.27 1429.08 40.69-73.94 78.09-180.79 120.11-266.66 200.89-410.5 494.33-826.09 926.56-1025.51 121.33-55.98 475.72-163.89 644.46-95.98-162.18 14.14-236.54-6.32-392.21 40.76-290.91 88-548 284.38-734.73 514.84-132.35 163.35-232.36 292.54-346.85 492.22-156.95 273.73-225.44 358.71-180.01 612.36 847.68-1798.54 1662.55-1440.92 1732.75-1463.2.14-.04 105.65-82.38 132.09-98.76 108.49-67.17 217.32-94.39 332.78-159.26-171.97-110.28-540.82-192.7-802.18-191.89-293.79.92-563.81 101.43-757.71 234.23-281.89 193.06-789.86 820.45-727.82 1206.36zm6060.42-4120.58-19.19-22.79c-137.76-136.24-620.83-383.44-777.17-407.75-422.42-65.67-573.83-226.17-911.41-302.28l-154.43-924.77c-40.71 145.57-15.41 298.34-27.81 450.52-152.13-56.88-174.25-77.55-374.78-62.15-.54-98.26 48.66-333.81 64.64-455.14 13.42-101.89 15.95-91.51-64.48-108.58-33.61 54.4-62.4 463.71-70.19 558.54-116.89 30.65-160.96 104.19-220.69 173.81-61.19-39.02-435.03-357.17-462.13-411.14 25.29-142.96 129.37-343.14 171.88-496.86-201.54 3.84-450.47-85.89-677.61-43.22 88.5 211.96 65.09 200.64 244.1 424.82 108.57 135.96 209.28 259.16 324.09 378.09 93.21 96.54 760.25 397.27 929.69 472.9 286.54 127.91 204.79 405.77 557.81 468.69 416.6 74.26 509.58-23.89 1192.71 210.49 89.47 30.71 183.86 77.12 274.97 96.81zm-1209.47 2897.19c-23.74-177.21-288.62-677.25-389.41-830.53-536.64-816.15-1279.6-1253.57-1461.56-2098.14-10.72-49.79-10.78-87.68-43.59-129.44-48.41 208.53-161.55-32.31-42.14 471.26 38.98 164.33 97.63 330.22 166.47 484.54 145.22 325.55 315.43 545.31 504.48 795.67 193.55 256.33 352.43 449.61 513.42 769.73 64.87 128.98 42.36 97.43 157.83 167.22 68.38 41.33 128.75 76.68 201.4 124.2 132.1 86.41 267.99 163.96 393.1 245.48zm-4531.89-3021.9c311.54-194.92 592.17-440.2 1086.03-456.91-39.82-416.34-29.44-686.68 166.42-964.34-58.59-47.95-465.91-253.84-533.9-225.77-91.4 37.74-315.86 287.32-391.86 394.86-243.82 345.02-302.27 738.5-326.68 1252.16zm2450.14 82.86c1.2 207.88 63.46 584.72 115.45 759.55 169.52 570.01 770.55 1052.14 461.76 1137.41-125.62 34.69-264.06-49.3-337.58-98.6-67.85-45.48-158.84-171.46-194.26-252.55-34.02 119.57-52.88 164.68-194.89 94.25-234.46-116.28-304.32-359.51-380.04-596.15-9.98-31.17-12.53-46.84-22.76-79.27-.86-2.72-13.7-38.7-13.81-38.94-14.32-32.93-6.48-17.38-19.14-35.6 5.39 147.77 15.76 240.54 39.42 376.34 49.39 283.5 35.83 277.82 352.88 485.11 255.5 167.06 1133.65 578.65 1404.13 693.11-37.54-284.18-796.54-1079.75-1026.51-1720.59-39.31-109.51-189.12-652.92-158.32-749.63 9.45-29.7 124.64-125.9 143.47-299.45 42-387.01-428.32-682.06-762.01-402.64-174.28 145.94-241.08 421.91-71.21 639.57 64.26 82.34 161.77 160.09 287.34 174.92 207.01 24.45 246.58-33 376.08-86.83zm-771.38-1914.42c84.11 62.05 441.48 477.47 535.62 578 546.97 584.08 481.57 1090.73 595.02 1263.92 90.92-43.88 76.8-121.92 272.53-95.85 206.61 27.52 345.3 298.13 196.52 468.86-79.99 91.78-171.48 80.65-293.69 64.67 31.14 54.06 178.09 129.07 247.02 155.1 562.68 212.57 1204.87-191.96 2231.18 147.45 91.4 30.22 218.32 100.04 315.07 120.27-39.89-93.77-404.03-275-500.73-310.49-425.69-156.19-931.78-108.17-1443.8-164.55-149.26-16.44-207.55 4.45-254.15-139.3-37.49-115.63-86.65-185.84-151.85-259.42-243.91-275.23-322.58-41.23-392.92-410.16-130.54-684.76-79.95-308.43-620.69-988.63-77.4-97.37-187.78-255.92-239.61-376.3l-66.43-141.17c-126.72.14-344.88 33.4-429.08 87.6zm1101.78 444.54c67.49 69.83 117.49 106.64 186.83 167.16 65.28 56.99 136.1 127.98 201.35 174.9 45.18-28.13 43.57-45.73 88.4-82.76 41.41-34.21 74.8-43.68 110.8-71.88 84.24-754.56 119.43-1134.48 407.05-1857.55 29.41-73.96 177.18-406.11 227.68-474.71 15.45-21 11.47-16.1 26.09-30.33-6.2 36.12-227.38 616.97-317.49 1109.02-35.52 193.94-67.12 417.93-93.42 625.06-23.69 186.61-82.63 462.39-88.18 627.64 120.34 4.27 193.14 5.92 284.05 52.13 25.29-920.29 69.44-1439.71 303.47-2317.7l175.79-622.61c-70.06 54.78-379.58 485.13-449.1 587.25-273.56 401.85-571.49 888.94-774.06 1347.16-66.19 149.72-276.61 612.26-289.26 767.23zm-4005.62 4294.32 196.63-227.38c630.02-670.71 1453.79-717.89 2383.4-724.16l150.81-211.09-911.95-300.82c-278.33-92.87-696.71-230.7-1026.45-185.77-152.18 20.73-354.7 49.76-419.35 178.19-70.47 139.97-133.13 266.56-185.52 429.91-63.15 196.89-202.62 837.39-187.57 1041.11zm338.44-204.79c.96 314.29 58.45 642.43 130.3 914.48 38.99 147.67 213.37 690.08 277.22 778.17 94.26-408.6 86.83-573.2 339.96-944.87 158.5-232.75 416.99-449.87 675.97-608.06 338.43-206.73 604.44-220.09 1038.38-137.11 172.4 32.97 347.9 89.51 505.92 143.72 287.87 98.75 150.19 7.28 543 7.28-64.48-143.44-480.77-461.35-666.73-567.33-332.57-189.49-557.2-234.78-1013.18-236.68-501.46-2.09-1079.58 109.72-1485.75 362.35-86.56 53.83-317.89 216.36-345.08 288.05z" fill="url(#a)"/></svg>