<svg
  clip-rule="evenodd"
  fill-rule="evenodd"
  height="180.622mm"
  image-rendering="optimizeQuality"
  shape-rendering="geometricPrecision"
  text-rendering="geometricPrecision"
  viewBox="0 0 21131.64 21131.64"
  width="180.622mm"
  xmlns="http://www.w3.org/2000/svg">
  <path
    d="m12777.43 10070.55c-5.98 2017.72 215.57 3936.23-1478.79 5272.85-1891.75 1492.35-4571.99 768.79-5315.36-1680.73-475.11-1565.61 51.87-3197.87 1398.99-4051.08 641.31-406.17 1374.35-576.74 2284.28-634.21l-.74 1873.82c-853.52 148.07-1514.18 397.2-1864.18 953.85-948.06 1507.83 1181.25 3213.57 2478.33 2105.81 801.46-684.48 650.03-2512.79 647.63-3633.95l5.36-5272.6 1803.6 1.21c273.11 1309.65 687.43 2184.8 2021.78 2521.35 172.39 43.47 417.57 59.25 554.13 108.58 38.81 248.06 49.97 1545.43-11.06 1756.14-1459.14 95.48-2174.78-675.58-2530.48-715.97l6.5 1394.91zm-12777.43 165.09c0 1571.38 96.89 2442.91 603.13 3895.61 245.96 705.81 470.37 1109.65 814.16 1744.75 79.71 147.26 153.17 245.55 235.57 383.53 338.79 567.33 980.27 1334.97 1432.28 1786.98 428.28 428.27 877.94 797.09 1372.03 1145.61 620.16 437.45 919.09 609.6 1609.32 949.59 977.55 481.51 2673.91 989.93 4127.89 989.93h55.95c1165.07-.26 1722.8-10.74 2899.7-304.9 355.25-88.8 649.45-182.62 981.24-298.23 1353.93-471.8 2184.64-1056.12 3244.67-1873.15 2117.01-1631.73 3755.73-4940.32 3755.73-7718.09 0-1905.66-224.87-3278.29-976.25-4843.21-1142.96-2380.46-2757.62-3925.67-5090.67-5103.68-1115.81-563.41-2861.69-990.39-4127.44-990.39-1590.72 0-2458.83 88.07-3936.88 603.13-294.61 102.66-639.22 238.8-906.09 373.35l-1222.19 676.38c-1733.45 1035.16-2996.46 2658.14-3895.64 4441.45-565.77 1122.09-976.48 2871.34-976.48 4141.34z"
    fill="#e6c784"/>
</svg>
